<?xml version="1.0" encoding="UTF-8" standalone="no"?><!DOCTYPE svg PUBLIC "-//W3C//DTD SVG 1.1//EN" "http://www.w3.org/Graphics/SVG/1.1/DTD/svg11.dtd"><svg width="100%" height="100%" viewBox="0 0 1500 1500" version="1.1" xmlns="http://www.w3.org/2000/svg" xmlns:xlink="http://www.w3.org/1999/xlink" xml:space="preserve" xmlns:serif="http://www.serif.com/" style="fill-rule:evenodd;clip-rule:evenodd;stroke-linecap:round;stroke-linejoin:round;stroke-miterlimit:1.5;"><circle id="Innenhintergrund" cx="749.012" cy="750" r="443.164" style="fill:#fff;"/><path id="Schwarzer-Ring-Hintergrund" serif:id="Schwarzer Ring Hintergrund" d="M750,37.395c393.298,-0 712.605,319.307 712.605,712.605c0,393.298 -319.307,712.605 -712.605,712.605c-393.298,0 -712.605,-319.307 -712.605,-712.605c-0,-393.298 319.307,-712.605 712.605,-712.605Zm0,270.429c244.043,0 442.176,198.133 442.176,442.176c-0,244.043 -198.133,442.176 -442.176,442.176c-244.043,-0 -442.176,-198.133 -442.176,-442.176c0,-244.043 198.133,-442.176 442.176,-442.176Z" style="fill:url(#_Radial1);"/><g id="NRW"><path id="rot" d="M347.991,934.215c11.313,24.637 24.826,48.058 40.308,70.026l-304.085,0c-8.737,-22.798 -16.332,-46.159 -22.686,-70.026l286.463,0Zm1090.48,0c-6.371,23.846 -13.949,47.201 -22.686,70.026l-304.085,0c15.476,-21.954 29.004,-45.382 40.308,-70.026l286.463,0Z" style="fill:#e2001a;"/><path id="weiß" d="M322.767,864.189c6.463,24.221 14.934,47.626 25.224,70.026l-286.463,0c-6.142,-22.898 -11.163,-46.259 -14.966,-70.026l276.205,-0Zm1130.67,-0c-3.831,23.77 -8.84,47.148 -14.966,70.026l-286.463,0c10.301,-22.402 18.78,-45.806 25.224,-70.026l276.205,-0Z" style="fill:#fff;"/><path id="grün" d="M310.018,794.163c2.381,23.966 6.679,47.371 12.749,70.026l-276.205,-0c-3.741,-22.998 -6.36,-46.355 -7.762,-70.026l271.218,-0Zm1151.18,-0c-1.446,23.67 -4.05,47.029 -7.762,70.026l-276.205,-0c6.073,-22.67 10.375,-46.064 12.749,-70.026l271.218,-0Z" style="fill:#009036;"/></g><ellipse id="Kreis-grau-dünn-außen" serif:id="Kreis grau dünn außen" cx="750" cy="750" rx="675.58" ry="677.893" style="fill:none;stroke:#a7a7a7;stroke-width:4.67px;"/><ellipse id="Kreis-grau-dünn-innen" serif:id="Kreis grau dünn innen" cx="750" cy="750" rx="424.399" ry="425.852" style="fill:none;stroke:#a7a7a7;stroke-width:4.67px;"/><g id="Eishockeyverband"><path d="M262.44,617.231l10.879,-38.492l17.642,4.986l-17.451,61.748l-126.503,-35.754l16.998,-60.144l17.642,4.987l-10.425,36.888l35.084,9.916l8.782,-31.075l17.843,5.043l-8.783,31.075l38.292,10.822Z" style="fill:#fff;fill-rule:nonzero;stroke:url(#_Linear2);stroke-width:4.17px;stroke-linecap:butt;stroke-miterlimit:2;"/><path d="M175.744,519.262l9.229,-22.109l121.313,50.642l-9.23,22.109l-121.312,-50.642Z" style="fill:url(#_Linear3);fill-rule:nonzero;stroke:url(#_Linear4);stroke-width:4.17px;stroke-linecap:butt;stroke-miterlimit:2;"/><path d="M314.969,479.908l-24.302,-14.158c-1.92,-1.118 -3.42,-1.51 -4.499,-1.174c-1.08,0.335 -2.179,1.463 -3.298,3.383l-8.494,14.581c-7.202,12.361 -16.803,15.046 -28.804,8.054l-27.902,-16.255c-11.88,-6.922 -14.045,-16.863 -6.494,-29.824l11.536,-19.801c7.55,-12.961 17.266,-15.981 29.147,-9.059l15.841,9.229l-12.165,20.881l-12.961,-7.551c-1.92,-1.118 -3.42,-1.51 -4.499,-1.174c-1.08,0.335 -2.179,1.463 -3.298,3.383l-3.985,6.84c-1.188,2.041 -1.662,3.613 -1.422,4.718c0.241,1.104 1.321,2.216 3.241,3.334l22.862,13.319c1.92,1.119 3.42,1.51 4.499,1.175c1.08,-0.336 2.214,-1.523 3.402,-3.564l8.285,-14.22c7.341,-12.601 16.892,-15.476 28.653,-8.624l29.702,17.304c11.881,6.921 14.011,16.923 6.39,30.004l-11.326,19.441c-7.621,13.081 -17.372,16.16 -29.252,9.239l-15.662,-9.124l12.061,-20.702l12.781,7.446c1.92,1.119 3.42,1.511 4.499,1.175c1.08,-0.335 2.214,-1.523 3.402,-3.563l3.986,-6.841c1.118,-1.92 1.557,-3.432 1.317,-4.537c-0.241,-1.104 -1.321,-2.216 -3.241,-3.335Z" style="fill:url(#_Linear5);fill-rule:nonzero;stroke:url(#_Linear6);stroke-width:4.17px;stroke-linecap:butt;stroke-miterlimit:2;"/><path d="M290.886,332.549l15.57,-18.21l99.917,85.427l-15.569,18.21l-42.596,-36.418l-17.6,20.585l42.596,36.418l-15.569,18.21l-99.918,-85.427l15.57,-18.21l43.387,37.095l17.6,-20.585l-43.388,-37.095Z" style="fill:#fff;fill-rule:nonzero;stroke:url(#_Linear7);stroke-width:4.17px;stroke-linecap:butt;stroke-miterlimit:2;"/><path d="M441.976,338.382l-52.294,-65.151c-1.391,-1.733 -2.65,-2.637 -3.778,-2.711c-1.128,-0.074 -2.559,0.585 -4.292,1.976l-8.611,6.911c-1.841,1.478 -2.848,2.776 -3.019,3.893c-0.172,1.118 0.438,2.543 1.829,4.276l52.293,65.151c1.391,1.733 2.65,2.636 3.778,2.71c1.128,0.074 2.613,-0.627 4.454,-2.105l8.611,-6.912c1.733,-1.391 2.686,-2.645 2.857,-3.762c0.172,-1.118 -0.437,-2.543 -1.828,-4.276Zm-86.137,-68.708l19.821,-15.91c11.807,-9.476 22.013,-8.852 30.62,1.871l56.466,70.35c8.607,10.723 7.007,20.822 -4.799,30.299l-19.821,15.909c-11.807,9.477 -22.013,8.853 -30.62,-1.87l-56.466,-70.35c-8.607,-10.723 -7.007,-20.823 4.799,-30.299Z" style="fill:#fff;fill-rule:nonzero;stroke:url(#_Linear8);stroke-width:4.17px;stroke-linecap:butt;stroke-miterlimit:2;"/><path d="M510.779,221.388l-21.273,11.467l-9.688,-17.972c-1.054,-1.956 -2.13,-3.073 -3.226,-3.35c-1.096,-0.277 -2.622,0.112 -4.578,1.166l-8.619,4.646c-1.956,1.055 -3.12,2.116 -3.491,3.184c-0.371,1.068 -0.029,2.58 1.025,4.536l40.53,75.188c1.055,1.956 2.13,3.073 3.226,3.35c1.096,0.277 2.622,-0.112 4.578,-1.166l8.619,-4.646c1.957,-1.055 3.12,-2.116 3.491,-3.184c0.371,-1.068 0.03,-2.58 -1.025,-4.536l-9.49,-17.605l21.273,-11.467l10.676,19.806c6.525,12.103 3.124,21.747 -10.202,28.93l-21.456,11.566c-13.327,7.184 -23.252,4.724 -29.776,-7.38l-42.903,-79.59c-6.524,-12.103 -3.123,-21.747 10.203,-28.93l21.456,-11.566c13.326,-7.183 23.251,-4.723 29.776,7.38l10.874,20.173Z" style="fill:#fff;fill-rule:nonzero;stroke:url(#_Linear9);stroke-width:4.17px;stroke-linecap:butt;stroke-miterlimit:2;"/><path d="M567.959,291.841l-39.69,-125.324l22.84,-7.233l39.69,125.323l-22.84,7.234Zm33.796,-148.597l-6.069,70.541l45.56,54.846l-24.627,7.799l-44.766,-55.097l5.274,-70.289l24.628,-7.8Z" style="fill:#fff;fill-rule:nonzero;stroke:url(#_Linear10);stroke-width:4.17px;stroke-linecap:butt;stroke-miterlimit:2;"/><path d="M674.74,245.088l39.639,-5.361l2.458,18.167l-63.588,8.601l-17.621,-130.272l61.936,-8.377l2.458,18.168l-37.988,5.138l4.887,36.129l32,-4.328l2.486,18.374l-32.001,4.329l5.334,39.432Z" style="fill:#fff;fill-rule:nonzero;stroke:url(#_Linear11);stroke-width:4.17px;stroke-linecap:butt;stroke-miterlimit:2;"/><path d="M776.136,258.367l-23.949,-0.653l1.136,-41.651l-28.165,-90.593l24.365,0.664l16.07,67.964l18.709,-67.015l24.366,0.664l-31.379,88.344l-1.153,42.276Z" style="fill:#fff;fill-rule:nonzero;stroke:url(#_Linear12);stroke-width:4.17px;stroke-linecap:butt;stroke-miterlimit:2;"/><path d="M891.492,142.609l24.072,4.989l-52.18,123.437l-30.804,-6.384l1.18,-134.008l24.276,5.031l-5.04,107.464l38.496,-100.529Z" style="fill:#fff;fill-rule:nonzero;stroke:url(#_Linear13);stroke-width:4.17px;stroke-linecap:butt;stroke-miterlimit:2;"/><path d="M928.817,272.449l37.114,14.918l-6.838,17.011l-59.537,-23.932l49.029,-121.973l57.991,23.31l-6.838,17.011l-35.567,-14.297l-13.598,33.828l29.962,12.043l-6.916,17.204l-29.961,-12.044l-14.841,36.921Z" style="fill:#fff;fill-rule:nonzero;stroke:url(#_Linear14);stroke-width:4.17px;stroke-linecap:butt;stroke-miterlimit:2;"/><path d="M1051.86,226.802l-23.366,37.48l14.674,9.148c1.886,1.176 3.384,1.66 4.496,1.452c1.111,-0.207 2.254,-1.254 3.43,-3.139l17.414,-27.933c1.176,-1.886 1.612,-3.374 1.309,-4.463c-0.303,-1.089 -1.397,-2.221 -3.283,-3.397l-14.674,-9.148Zm-32.734,52.507l-27.113,43.491l-20.331,-12.675l69.546,-111.555l41.016,25.57c12.847,8.009 15.633,17.848 8.359,29.516l-20.611,33.06c-6.025,9.664 -13.854,12.64 -23.486,8.926l-8.881,55.594l-21.922,-13.667l10.141,-54.071l-6.718,-4.189Z" style="fill:#fff;fill-rule:nonzero;stroke:url(#_Linear15);stroke-width:4.17px;stroke-linecap:butt;stroke-miterlimit:2;"/><path d="M1135.25,261.161l37.079,33.543c11.226,10.156 12.227,20.332 3.003,30.529l-19.008,21.011c-5.87,6.489 -11.62,8.498 -17.25,6.027c3.021,5.355 1.83,11.02 -3.575,16.993l-20.685,22.866c-9.224,10.196 -19.449,10.217 -30.676,0.061l-37.079,-33.544l88.191,-97.486Zm-36.371,113.182l19.427,-21.475c1.491,-1.648 2.184,-3.035 2.078,-4.16c-0.105,-1.126 -1.034,-2.481 -2.785,-4.065l-14.059,-12.718l-26.974,29.818l14.059,12.718c1.751,1.584 3.192,2.372 4.322,2.365c1.131,-0.008 2.441,-0.835 3.932,-2.483Zm38.715,-42.796l18.448,-20.393c1.491,-1.648 2.184,-3.035 2.078,-4.16c-0.105,-1.126 -1.033,-2.481 -2.784,-4.065l-14.06,-12.718l-25.996,28.736l14.06,12.719c1.751,1.584 3.191,2.372 4.322,2.364c1.13,-0.007 2.441,-0.835 3.932,-2.483Z" style="fill:#fff;fill-rule:nonzero;stroke:url(#_Linear16);stroke-width:4.17px;stroke-linecap:butt;stroke-miterlimit:2;"/><path d="M1164.17,412.671l13.531,17.715l43.044,-47.297l-56.575,29.582Zm-17.503,51.906l18.654,-20.54l-17.452,-22.847l-24.47,12.924l-14.543,-19.039l120.529,-58.771l19.602,25.662l-87.65,101.816l-14.67,-19.205Z" style="fill:#fff;fill-rule:nonzero;stroke:url(#_Linear17);stroke-width:4.17px;stroke-linecap:butt;stroke-miterlimit:2;"/><path d="M1307.41,480.387l9.855,19.529l-117.361,59.225l-10.137,-20.087l65.074,-64.342l-77.745,39.233l-9.949,-19.715l117.362,-59.225l10.418,20.645l-64.146,63.407l76.629,-38.67Z" style="fill:#fff;fill-rule:nonzero;stroke:url(#_Linear18);stroke-width:4.17px;stroke-linecap:butt;stroke-miterlimit:2;"/><path d="M1243.13,619.269l81.961,-23.3c2.137,-0.608 3.46,-1.417 3.966,-2.428c0.507,-1.01 0.457,-2.584 -0.151,-4.722l-5.127,-18.035l-92.782,26.377l5.127,18.036c0.608,2.137 1.393,3.502 2.356,4.095c0.963,0.593 2.513,0.585 4.65,-0.023Zm90.93,-76.316l13.673,48.095c4.14,14.562 -0.403,23.723 -13.629,27.483l-86.77,24.668c-13.226,3.76 -21.909,-1.641 -26.049,-16.203l-13.672,-48.094l126.447,-35.949Z" style="fill:#fff;fill-rule:nonzero;stroke:url(#_Linear19);stroke-width:4.17px;stroke-linecap:butt;stroke-miterlimit:2;"/></g><g id="NRW-e.V." serif:id="NRW e.V."><path d="M520.963,1184.47l18.918,10.982l-65.997,113.691l-19.459,-11.296l19.396,-89.433l-43.72,75.313l-19.099,-11.087l65.998,-113.69l20,11.609l-19.129,88.143l43.092,-74.232Z" style="fill:#fff;fill-rule:nonzero;stroke:url(#_Linear20);stroke-width:4.17px;stroke-linecap:butt;stroke-miterlimit:2;"/><path d="M574.943,1229.15l-14.234,41.811l16.369,5.572c2.103,0.717 3.673,0.847 4.708,0.393c1.035,-0.455 1.91,-1.734 2.626,-3.837l10.609,-31.161c0.716,-2.103 0.803,-3.651 0.26,-4.643c-0.542,-0.992 -1.865,-1.845 -3.969,-2.562l-16.369,-5.573Zm-19.942,58.574l-16.517,48.515l-22.68,-7.721l42.367,-124.444l45.755,15.577c14.331,4.879 19.281,13.827 14.849,26.843l-12.555,36.88c-3.671,10.781 -10.618,15.458 -20.843,14.031l3.989,56.157l-24.455,-8.325l-2.415,-54.962l-7.495,-2.551Z" style="fill:#fff;fill-rule:nonzero;stroke:url(#_Linear21);stroke-width:4.17px;stroke-linecap:butt;stroke-miterlimit:2;"/><path d="M747.85,1244.2l23.642,2.269l-35.578,128.648l-30.278,-2.906l-5.867,-93.697l-23.373,90.891l-30.278,-2.906l-10.46,-133.066l24.678,2.368l3.289,107.473l27.403,-104.527l25.093,2.408l6.815,107.811l24.914,-104.766Z" style="fill:#fff;fill-rule:nonzero;stroke:url(#_Linear22);stroke-width:4.17px;stroke-linecap:butt;stroke-miterlimit:2;"/><path d="M863.902,1344.4l39.157,-8.167l3.743,17.947l-62.815,13.101l-26.839,-128.69l61.184,-12.76l3.743,17.947l-37.526,7.827l7.443,35.69l31.612,-6.593l3.785,18.151l-31.611,6.593l8.124,38.954Z" style="fill:#fff;fill-rule:nonzero;stroke:url(#_Linear23);stroke-width:4.17px;stroke-linecap:butt;stroke-miterlimit:2;"/><path d="M931.79,1346.26l-8.9,-26.68l24.11,-8.043l8.9,26.68l-24.11,8.043Z" style="fill:#fff;fill-rule:nonzero;stroke:url(#_Linear24);stroke-width:4.17px;stroke-linecap:butt;stroke-miterlimit:2;"/><path d="M975.781,1186.32l22.106,-10.754l34.087,129.605l-28.289,13.761l-80.922,-106.822l22.294,-10.845l61.652,88.164l-30.928,-103.109Z" style="fill:#fff;fill-rule:nonzero;stroke:url(#_Linear25);stroke-width:4.17px;stroke-linecap:butt;stroke-miterlimit:2;"/><path d="M1076.78,1279.41l-15.48,-23.482l21.221,-13.989l15.479,23.482l-21.22,13.989Z" style="fill:#fff;fill-rule:nonzero;stroke:url(#_Linear26);stroke-width:4.17px;stroke-linecap:butt;stroke-miterlimit:2;"/></g><g id="EHV"><path d="M489.239,873.977l104.631,0l0,47.956l-167.846,0l0,-343.866l163.487,-0l-0,47.956l-100.272,-0l0,95.367l84.468,-0l0,48.501l-84.468,-0l0,104.086Z" style="fill:none;fill-rule:nonzero;stroke:url(#_Linear27);stroke-width:16.67px;stroke-linecap:butt;stroke-miterlimit:34;"/><path d="M489.239,873.977l104.631,0l0,47.956l-167.846,0l0,-343.866l163.487,-0l-0,47.956l-100.272,-0l0,95.367l84.468,-0l0,48.501l-84.468,-0l0,104.086Z" style="fill-rule:nonzero;"/><path d="M763.351,578.067l62.67,-0l0,343.866l-62.67,0l0,-146.593l-70.844,0l0,146.593l-62.67,0l0,-343.866l62.67,-0l0,149.317l70.844,0l0,-149.317Z" style="fill:none;fill-rule:nonzero;stroke:url(#_Linear28);stroke-width:16.67px;stroke-linecap:butt;stroke-miterlimit:34;"/><path d="M763.351,578.067l62.67,-0l0,343.866l-62.67,0l0,-146.593l-70.844,0l0,146.593l-62.67,0l0,-343.866l62.67,-0l0,149.317l70.844,0l0,-149.317Z" style="fill-rule:nonzero;"/><path d="M1009.67,578.067l64.305,-0l-68.12,343.866l-82.288,0l-68.119,-343.866l64.849,-0l44.142,277.927l45.231,-277.927Z" style="fill:none;fill-rule:nonzero;stroke:url(#_Linear29);stroke-width:16.67px;stroke-linecap:butt;stroke-miterlimit:34;"/><path d="M1009.67,578.067l64.305,-0l-68.12,343.866l-82.288,0l-68.119,-343.866l64.849,-0l44.142,277.927l45.231,-277.927Z" style="fill-rule:nonzero;"/></g><defs><radialGradient id="_Radial1" cx="0" cy="0" r="1" gradientUnits="userSpaceOnUse" gradientTransform="matrix(712.605,0,0,712.605,750,750)"><stop offset="0" style="stop-color:#fff;stop-opacity:1"/><stop offset="0.58" style="stop-color:#4b4b4b;stop-opacity:1"/><stop offset="1" style="stop-color:#000;stop-opacity:1"/></radialGradient><linearGradient id="_Linear2" x1="0" y1="0" x2="1" y2="0" gradientUnits="userSpaceOnUse" gradientTransform="matrix(117.213,36.0668,-22.3334,72.5809,159.151,581.924)"><stop offset="0" style="stop-color:#363636;stop-opacity:1"/><stop offset="0.5" style="stop-color:#dbdbdb;stop-opacity:1"/><stop offset="1" style="stop-color:#363636;stop-opacity:1"/></linearGradient><linearGradient id="_Linear3" x1="0" y1="0" x2="1" y2="0" gradientUnits="userSpaceOnUse" gradientTransform="matrix(211.841,-1.42109e-14,0,127.72,146.452,534.235)"><stop offset="0" style="stop-color:#fff;stop-opacity:1"/><stop offset="0.5" style="stop-color:#fff;stop-opacity:1"/><stop offset="1" style="stop-color:#fff;stop-opacity:1"/></linearGradient><linearGradient id="_Linear4" x1="0" y1="0" x2="1" y2="0" gradientUnits="userSpaceOnUse" gradientTransform="matrix(118.771,49.8047,-30.0274,71.6074,180.487,508.949)"><stop offset="0" style="stop-color:#353535;stop-opacity:1"/><stop offset="0.5" style="stop-color:#dadada;stop-opacity:1"/><stop offset="1" style="stop-color:#363636;stop-opacity:1"/></linearGradient><linearGradient id="_Linear5" x1="0" y1="0" x2="1" y2="0" gradientUnits="userSpaceOnUse" gradientTransform="matrix(211.841,0,-1.42109e-14,127.72,146.452,534.235)"><stop offset="0" style="stop-color:#fff;stop-opacity:1"/><stop offset="0.5" style="stop-color:#fff;stop-opacity:1"/><stop offset="1" style="stop-color:#fff;stop-opacity:1"/></linearGradient><linearGradient id="_Linear6" x1="0" y1="0" x2="1" y2="0" gradientUnits="userSpaceOnUse" gradientTransform="matrix(118.771,49.8047,-30.0274,71.6074,180.487,508.949)"><stop offset="0" style="stop-color:#353535;stop-opacity:1"/><stop offset="0.5" style="stop-color:#dadada;stop-opacity:1"/><stop offset="1" style="stop-color:#363636;stop-opacity:1"/></linearGradient><linearGradient id="_Linear7" x1="0" y1="0" x2="1" y2="0" gradientUnits="userSpaceOnUse" gradientTransform="matrix(97.1711,83.7813,-79.6193,92.344,282.302,343.367)"><stop offset="0" style="stop-color:#353535;stop-opacity:1"/><stop offset="0.5" style="stop-color:#dbdbdb;stop-opacity:1"/><stop offset="1" style="stop-color:#343434;stop-opacity:1"/></linearGradient><linearGradient id="_Linear8" x1="0" y1="0" x2="1" y2="0" gradientUnits="userSpaceOnUse" gradientTransform="matrix(81.7001,97.7617,-105.701,88.3352,368.299,264.499)"><stop offset="0" style="stop-color:#353535;stop-opacity:1"/><stop offset="0.5" style="stop-color:#d9d9d9;stop-opacity:1"/><stop offset="1" style="stop-color:#3d3d3d;stop-opacity:1"/></linearGradient><linearGradient id="_Linear9" x1="0" y1="0" x2="1" y2="0" gradientUnits="userSpaceOnUse" gradientTransform="matrix(61.6271,112.863,-141.111,77.0513,461.002,200.963)"><stop offset="0" style="stop-color:#363636;stop-opacity:1"/><stop offset="0.5" style="stop-color:#d9d9d9;stop-opacity:1"/><stop offset="1" style="stop-color:#353535;stop-opacity:1"/></linearGradient><linearGradient id="_Linear10" x1="0" y1="0" x2="1" y2="0" gradientUnits="userSpaceOnUse" gradientTransform="matrix(38.9633,123.055,-177.605,56.2359,562.795,155.071)"><stop offset="0" style="stop-color:#353535;stop-opacity:1"/><stop offset="0.5" style="stop-color:#dadada;stop-opacity:1"/><stop offset="1" style="stop-color:#343434;stop-opacity:1"/></linearGradient><linearGradient id="_Linear11" x1="0" y1="0" x2="1" y2="0" gradientUnits="userSpaceOnUse" gradientTransform="matrix(19.0564,130.588,-248.342,36.24,666.588,131.591)"><stop offset="0" style="stop-color:#353535;stop-opacity:1"/><stop offset="0.5" style="stop-color:#dbdbdb;stop-opacity:1"/><stop offset="1" style="stop-color:#363636;stop-opacity:1"/></linearGradient><linearGradient id="_Linear12" x1="0" y1="0" x2="1" y2="0" gradientUnits="userSpaceOnUse" gradientTransform="matrix(-1.84038,129.42,-244.076,-3.47083,766.908,128.417)"><stop offset="0" style="stop-color:#2f2f2f;stop-opacity:1"/><stop offset="0.5" style="stop-color:#dadada;stop-opacity:1"/><stop offset="1" style="stop-color:#353535;stop-opacity:1"/></linearGradient><linearGradient id="_Linear13" x1="0" y1="0" x2="1" y2="0" gradientUnits="userSpaceOnUse" gradientTransform="matrix(26.3265,-125.479,206.25,43.2731,847.827,266.192)"><stop offset="0" style="stop-color:#343434;stop-opacity:1"/><stop offset="0.5" style="stop-color:#d9d9d9;stop-opacity:1"/><stop offset="1" style="stop-color:#343434;stop-opacity:1"/></linearGradient><linearGradient id="_Linear14" x1="0" y1="0" x2="1" y2="0" gradientUnits="userSpaceOnUse" gradientTransform="matrix(48.8648,-119.799,172.147,70.2173,930.176,291.168)"><stop offset="0" style="stop-color:#343434;stop-opacity:1"/><stop offset="0.5" style="stop-color:#d9d9d9;stop-opacity:1"/><stop offset="1" style="stop-color:#363636;stop-opacity:1"/></linearGradient><linearGradient id="_Linear15" x1="0" y1="0" x2="1" y2="0" gradientUnits="userSpaceOnUse" gradientTransform="matrix(66.4665,-109.984,130.486,78.8562,1004.03,327.702)"><stop offset="0" style="stop-color:#353535;stop-opacity:1"/><stop offset="0.5" style="stop-color:#d9d9d9;stop-opacity:1"/><stop offset="1" style="stop-color:#353535;stop-opacity:1"/></linearGradient><linearGradient id="_Linear16" x1="0" y1="0" x2="1" y2="0" gradientUnits="userSpaceOnUse" gradientTransform="matrix(87.6238,-96.4141,99.8685,90.7633,1075.49,382.207)"><stop offset="0" style="stop-color:#353535;stop-opacity:1"/><stop offset="0.5" style="stop-color:#dbdbdb;stop-opacity:1"/><stop offset="1" style="stop-color:#353535;stop-opacity:1"/></linearGradient><linearGradient id="_Linear17" x1="0" y1="0" x2="1" y2="0" gradientUnits="userSpaceOnUse" gradientTransform="matrix(99.847,-76.9512,69.974,90.7938,1136.59,448.22)"><stop offset="0" style="stop-color:#343434;stop-opacity:1"/><stop offset="0.5" style="stop-color:#d9d9d9;stop-opacity:1"/><stop offset="1" style="stop-color:#363636;stop-opacity:1"/></linearGradient><linearGradient id="_Linear18" x1="0" y1="0" x2="1" y2="0" gradientUnits="userSpaceOnUse" gradientTransform="matrix(116.693,-56.3418,45.0225,93.2488,1183.85,525.098)"><stop offset="0" style="stop-color:#353535;stop-opacity:1"/><stop offset="0.5" style="stop-color:#dbdbdb;stop-opacity:1"/><stop offset="1" style="stop-color:#353535;stop-opacity:1"/></linearGradient><linearGradient id="_Linear19" x1="0" y1="0" x2="1" y2="0" gradientUnits="userSpaceOnUse" gradientTransform="matrix(125.963,-35.377,24.2371,86.298,1217.96,612.713)"><stop offset="0" style="stop-color:#3d3d3d;stop-opacity:1"/><stop offset="0.5" style="stop-color:#dadada;stop-opacity:1"/><stop offset="1" style="stop-color:#363636;stop-opacity:1"/></linearGradient><linearGradient id="_Linear20" x1="0" y1="0" x2="1" y2="0" gradientUnits="userSpaceOnUse" gradientTransform="matrix(-63.873,108.521,-41.1967,-24.2474,506.678,1180.16)"><stop offset="0" style="stop-color:#353535;stop-opacity:1"/><stop offset="0.5" style="stop-color:#dbdbdb;stop-opacity:1"/><stop offset="1" style="stop-color:#353535;stop-opacity:1"/></linearGradient><linearGradient id="_Linear21" x1="0" y1="0" x2="1" y2="0" gradientUnits="userSpaceOnUse" gradientTransform="matrix(-42.0188,121.508,-46.1268,-15.9511,591.631,1217.03)"><stop offset="0" style="stop-color:#353535;stop-opacity:1"/><stop offset="0.5" style="stop-color:#dbdbdb;stop-opacity:1"/><stop offset="1" style="stop-color:#353535;stop-opacity:1"/></linearGradient><linearGradient id="_Linear22" x1="0" y1="0" x2="1" y2="0" gradientUnits="userSpaceOnUse" gradientTransform="matrix(-12.5318,128.823,-48.9037,-4.75732,704.956,1242.16)"><stop offset="0" style="stop-color:#353535;stop-opacity:1"/><stop offset="0.5" style="stop-color:#dbdbdb;stop-opacity:1"/><stop offset="1" style="stop-color:#353535;stop-opacity:1"/></linearGradient><linearGradient id="_Linear23" x1="0" y1="0" x2="1" y2="0" gradientUnits="userSpaceOnUse" gradientTransform="matrix(-28.1855,-125.406,47.6063,-10.6997,871.313,1360.32)"><stop offset="0" style="stop-color:#353535;stop-opacity:1"/><stop offset="0.5" style="stop-color:#dbdbdb;stop-opacity:1"/><stop offset="1" style="stop-color:#353535;stop-opacity:1"/></linearGradient><linearGradient id="_Linear24" x1="0" y1="0" x2="1" y2="0" gradientUnits="userSpaceOnUse" gradientTransform="matrix(-39.1907,-116.539,44.2402,-14.8775,943.313,1340.45)"><stop offset="0" style="stop-color:#353535;stop-opacity:1"/><stop offset="0.5" style="stop-color:#dbdbdb;stop-opacity:1"/><stop offset="1" style="stop-color:#353535;stop-opacity:1"/></linearGradient><linearGradient id="_Linear25" x1="0" y1="0" x2="1" y2="0" gradientUnits="userSpaceOnUse" gradientTransform="matrix(-57.0891,-112.119,42.5625,-21.6721,1019.35,1309.98)"><stop offset="0" style="stop-color:#353535;stop-opacity:1"/><stop offset="0.5" style="stop-color:#dbdbdb;stop-opacity:1"/><stop offset="1" style="stop-color:#353535;stop-opacity:1"/></linearGradient><linearGradient id="_Linear26" x1="0" y1="0" x2="1" y2="0" gradientUnits="userSpaceOnUse" gradientTransform="matrix(-67.7141,-99.7104,37.8519,-25.7055,1085.7,1270.87)"><stop offset="0" style="stop-color:#353535;stop-opacity:1"/><stop offset="0.5" style="stop-color:#dbdbdb;stop-opacity:1"/><stop offset="1" style="stop-color:#353535;stop-opacity:1"/></linearGradient><linearGradient id="_Linear27" x1="0" y1="0" x2="1" y2="0" gradientUnits="userSpaceOnUse" gradientTransform="matrix(4.02824e-13,343.867,-343.867,4.02824e-13,426.024,578.067)"><stop offset="0" style="stop-color:#313833;stop-opacity:1"/><stop offset="0.5" style="stop-color:#d2d2d2;stop-opacity:1"/><stop offset="1" style="stop-color:#353535;stop-opacity:1"/></linearGradient><linearGradient id="_Linear28" x1="0" y1="0" x2="1" y2="0" gradientUnits="userSpaceOnUse" gradientTransform="matrix(4.02824e-13,343.867,-343.867,4.02824e-13,426.024,578.067)"><stop offset="0" style="stop-color:#313833;stop-opacity:1"/><stop offset="0.5" style="stop-color:#d2d2d2;stop-opacity:1"/><stop offset="1" style="stop-color:#353535;stop-opacity:1"/></linearGradient><linearGradient id="_Linear29" x1="0" y1="0" x2="1" y2="0" gradientUnits="userSpaceOnUse" gradientTransform="matrix(4.02824e-13,343.867,-343.867,4.02824e-13,426.024,578.067)"><stop offset="0" style="stop-color:#313833;stop-opacity:1"/><stop offset="0.5" style="stop-color:#d2d2d2;stop-opacity:1"/><stop offset="1" style="stop-color:#353535;stop-opacity:1"/></linearGradient></defs></svg>